<svg width="16" height="17" fill="none" xmlns="http://www.w3.org/2000/svg"><g fill="#37454A" fill-opacity=".4" clip-path="url(#a)"><path d="M8 5.203a3.238 3.238 0 0 1 3.234 3.234.466.466 0 0 0 .932 0A4.17 4.17 0 0 0 8 4.271a4.17 4.17 0 0 0-4.166 4.166A4.17 4.17 0 0 0 8 12.603a4.184 4.184 0 0 0 3.599-2.067.466.466 0 0 0-.805-.47A3.248 3.248 0 0 1 8 11.671a3.238 3.238 0 0 1-3.234-3.234A3.238 3.238 0 0 1 8 5.203Z"/><path d="M15.977 7.82C15.685 3.932 12.534.77 8.647.463A8.01 8.01 0 0 0 2.344 2.78 8.01 8.01 0 0 0 .025 9.085c.305 3.872 3.455 7.022 7.327 7.327a8.004 8.004 0 0 0 6.305-2.318.466.466 0 1 0-.66-.659 7.08 7.08 0 0 1-5.572 2.048c-3.42-.27-6.201-3.052-6.47-6.471a7.08 7.08 0 0 1 2.047-5.573 7.078 7.078 0 0 1 5.573-2.047c3.432.27 6.215 3.064 6.472 6.498.036.47.025.943-.03 1.405-.06.49-.356.916-.793 1.142-.396.205-.84.204-1.22-.002a.466.466 0 1 0-.444.82 2.202 2.202 0 0 0 2.091.01 2.416 2.416 0 0 0 1.29-1.859 8.154 8.154 0 0 0 .036-1.586Z"/></g><defs><clipPath id="a"><path fill="#fff" transform="translate(0 .437)" d="M0 0h16v16H0z"/></clipPath></defs></svg>