<svg width="36" height="26" fill="none" xmlns="http://www.w3.org/2000/svg"><g clip-path="url(#a)" fill="#fff"><path d="M26.403 25.384a7.036 7.036 0 1 1 7.033-7.036 7.044 7.044 0 0 1-7.033 7.037Zm0-12.197a5.164 5.164 0 1 0-.008 10.329 5.164 5.164 0 0 0 .008-10.329Zm-13.179 8.621-1.258-1.397a2.604 2.604 0 1 0-3.505-3.853l-1.24-1.39a4.493 4.493 0 0 1 5.992 6.64h.011Z"/><path d="m29.193 21.808-1.259-1.397a2.621 2.621 0 0 0 .188-3.677 2.603 2.603 0 0 0-3.678-.184l-1.25-1.382a4.474 4.474 0 0 1 7.108 5.243 4.473 4.473 0 0 1-1.117 1.397h.008Zm-18.661 3.576a7.037 7.037 0 1 1 7.037-7.036 7.044 7.044 0 0 1-7.037 7.037Zm0-12.197a5.164 5.164 0 1 0 0 10.329 5.164 5.164 0 0 0 0-10.329Z"/><path d="M20.988 15.756a4.79 4.79 0 0 0-4.91 0l-.959-1.606a6.643 6.643 0 0 1 6.827 0l-.958 1.606Zm-.854 3.281a3.109 3.109 0 0 0-3.202 0l-.963-1.622a4.996 4.996 0 0 1 5.127 0l-.962 1.622ZM3.016 14.955H1.143v2.704h1.873v-2.704Zm32.955 0h-1.872v2.704h1.872v-2.704ZM2.29 12.573l-1.32-1.33L11.116 1.208a.932.932 0 0 1 1.232-.07l3.045 2.37-1.154 1.498-2.408-1.888-9.542 9.456Zm32.254 0-9.557-9.456L22.59 4.99l-1.15-1.483 3.045-2.37a.936.936 0 0 1 1.233.07l10.144 10.037-1.318 1.33Z"/></g><defs><clipPath id="a"><path fill="#fff" transform="translate(.971 .938)" d="M0 0h35v24.447H0z"/></clipPath></defs></svg>