<svg width="41" height="31" fill="none" xmlns="http://www.w3.org/2000/svg"><g clip-path="url(#a)" fill="#fff"><path d="m33.299 20.567-2.105-2.966-1.473 1.038.227.32a5.637 5.637 0 0 0-3.14.498V15.27h2.523V9.983h-4.324a.274.274 0 0 1-.27-.27v-1.74a1.474 1.474 0 0 0-1.47-1.489H18.51a1.474 1.474 0 0 0-1.47 1.474v1.77a.275.275 0 0 1-.27.27h-4.163v5.272h2.04v4.054a5.766 5.766 0 0 0-2.134-.411 5.483 5.483 0 0 0-.692.047l.224-.321-1.47-1.038-2.083 2.937a5.794 5.794 0 1 0 9.625 5.661h5.531a5.798 5.798 0 1 0 9.65-5.632ZM20.88 18.199a.8.8 0 1 1 .007 1.601.8.8 0 0 1-.007-1.6Zm-8.368 10.516a4 4 0 1 1 0-8 4 4 0 0 1 0 8Zm3.935-8.253V15.27h1.982v2.883a2.6 2.6 0 1 0 4.736-.39V15.27h1.841v5.502a5.766 5.766 0 0 0-1.542 3.626H18.3a5.795 5.795 0 0 0-1.852-3.936Zm12.8 8.253a4 4 0 1 1 0-8 4 4 0 0 1 0 8ZM20.42 2.473a.43.43 0 0 1 .41-.313h.213a.425.425 0 0 1 .422.313l.083 2.523 1.801-.058-.082-2.602v-.122A2.227 2.227 0 0 0 21.043.358h-.213a2.22 2.22 0 0 0-2.194 1.856l-.098 2.731 1.802.058.08-2.53ZM.924 26.834H5.43v-5.406H.924v5.406Zm35.496-5.406v5.405h4.504v-5.405H36.42Z"/><path d="M9.717 15.27h1.081V9.983H9.717a2.645 2.645 0 0 0 0 5.287Zm24.973-2.66a2.645 2.645 0 0 0-2.642-2.641h-.922v5.3h.922a2.646 2.646 0 0 0 2.642-2.659Z"/></g><defs><clipPath id="a"><path fill="#fff" transform="translate(.924 .358)" d="M0 0h40v30.159H0z"/></clipPath></defs></svg>