<svg width="16" height="17" fill="none" xmlns="http://www.w3.org/2000/svg"><g clip-path="url(#a)" fill="#37454A" fill-opacity=".4"><path d="M15.392 12.955 12.257 9.82a.96.96 0 0 0-1.357 0l-.815.815a.96.96 0 0 0-.243.945l-.308.308c-.218.219-1.579-.117-3.223-1.761S4.33 7.122 4.549 6.903l.308-.307a.965.965 0 0 0 .945-.243l.815-.816a.96.96 0 0 0 0-1.357L3.482 1.045a.953.953 0 0 0-.678-.281c-.257 0-.498.1-.679.281l-.815.815a.96.96 0 0 0-.243.945s-.26.264-.274.28c-.867.964-1.03 2.482-.455 4.297.563 1.776 1.777 3.659 3.418 5.3 1.64 1.64 3.523 2.854 5.3 3.417.714.226 1.381.338 1.988.338.994 0 1.823-.301 2.417-.895l.17-.171a.964.964 0 0 0 .946-.243l.815-.816a.961.961 0 0 0 0-1.357ZM2.804 1.724l3.135 3.135-.815.815-.012-.012-1.556-1.556L1.988 2.54l.816-.815Zm9.978 13.14c-.69.69-1.91.804-3.436.32-1.633-.517-3.377-1.647-4.911-3.181C2.9 10.469 1.77 8.725 1.253 7.092c-.483-1.526-.37-2.746.321-3.437l.087-.086 2.433 2.433-.223.223c-.925.926.186 3.005 1.761 4.58 1.18 1.18 2.64 2.098 3.69 2.098.352 0 .658-.103.89-.336l.224-.223 2.433 2.433-.087.086Zm1.117-.415-3.136-3.135.816-.815 3.135 3.135-.816.815ZM12.15 4.287A4.8 4.8 0 0 0 8.735 2.87a.48.48 0 1 0 0 .96 3.85 3.85 0 0 1 2.738 1.134 3.847 3.847 0 0 1 1.134 2.739.48.48 0 0 0 .96 0 4.8 4.8 0 0 0-1.415-3.417Z"/><path d="M13.872 2.566A7.219 7.219 0 0 0 8.733.437a.48.48 0 0 0 0 .96c1.685 0 3.269.656 4.46 1.847a6.265 6.265 0 0 1 1.847 4.46.48.48 0 0 0 .96 0 7.219 7.219 0 0 0-2.128-5.138ZM10.43 6.008a2.35 2.35 0 0 0-1.696-.703.48.48 0 1 0 0 .96c.395 0 .737.142 1.017.421.275.276.421.628.421 1.017a.48.48 0 0 0 .96 0c0-.65-.243-1.236-.703-1.695Z"/></g><defs><clipPath id="a"><path fill="#fff" transform="translate(0 .437)" d="M0 0h16v16H0z"/></clipPath></defs></svg>